# AST/ASF file generated using VICON BodyLanguage
# -----------------------------------------------
:version 1.10
:name VICON
:units
  mass 1.0
  length 0.45
  angle deg
:documentation
   .ast/.asf automatically generated from VICON data using
   VICON BodyBuilder and BodyLanguage model FoxedUp or BRILLIANT.MOD
:root
   order TX TY TZ RX RY RZ
   axis XYZ
   position 0 0 0  
   orientation 0 0 0 
:bonedata
  begin
     id 1 
     name lhipjoint
     direction 0.650112 -0.723553 0.232005 
     length 2.45805 
     axis 0 0 0  XYZ
  end
  begin
     id 2 
     name lfemur
     direction 0.34202 -0.939693 0  
     length 7.00073  
     axis 0 0 20  XYZ
    dof rx ry rz
    limits (-160.0 20.0)
           (-70.0 70.0)
           (-60.0 70.0)
  end
  begin
     id 3 
     name ltibia
     direction 0.34202 -0.939693 0   
     length 7.8748   
     axis 0 0 20   XYZ
    dof rx
    limits (-10.0 170.0)
  end
  begin
     id 4 
     name lfoot
     direction 0.0542825 -0.14914 0.987325   
     length 1.75978   
     axis -90 7.62852e-016 20   XYZ
    dof rx rz
    limits (-45.0 90.0)
           (-70.0 20.0)
  end
  begin
     id 5 
     name ltoes
     direction 1.53509e-011 -4.21906e-011 1   
     length 0.893912   
     axis -90 7.62852e-016 20   XYZ
    dof rx
    limits (-90.0 20.0)
  end
  begin
     id 6 
     name rhipjoint
     direction -0.637897 -0.733345 0.235145   
     length 2.42522  
     axis 0 0 0  XYZ 
  end
  begin
     id 7 
     name rfemur
     direction -0.34202 -0.939693 0   
     length 7.02549   
     axis 0 0 -20   XYZ
    dof rx ry rz
    limits (-160.0 20.0)
           (-70.0 70.0)
           (-70.0 60.0)
  end
  begin
     id 8 
     name rtibia
     direction -0.34202 -0.939693 0   
     length 7.71512   
     axis 0 0 -20   XYZ
    dof rx
    limits (-10.0 170.0)
 end
 begin
     id 9 
     name rfoot
     direction -0.0822618 -0.226012 0.970645   
     length 1.90014  
     axis -90 -7.62852e-016 -20   XYZ
    dof rx rz
    limits (-45.0 90.0)
           (-20.0 70.0)
  end
  begin
     id 10 
     name rtoes
     direction -1.53542e-011 -4.21872e-011 1   
     length 0.957341   
     axis -90 -7.62852e-016 -20   XYZ
    dof rx
    limits (-90.0 20.0)
  end
  begin
     id 11 
     name lowerback
     direction -0.0022947 0.999774 -0.0211557   
     length 1.89909   
     axis 0 0 0   XYZ
    dof rx ry rz
    limits (-20.0 45.0)
           (-30.0 30.0)
           (-30.0 30.0)
  end
  begin
     id 12 
     name upperback
     direction 0.0107737 0.998635 0.0511027   
     length 1.8853   
     axis 0 0 0   XYZ
    dof rx ry rz
    limits (-20.0 45.0)
           (-30.0 30.0)
           (-30.0 30.0)
  end
  begin
     id 13 
     name thorax
     direction 0.011824 0.998136 0.0598754   
     length 1.88911   
     axis 0 0 0   XYZ
    dof rx ry rz
    limits (-20.0 45.0)
           (-30.0 30.0)
           (-30.0 30.0)
  end
  begin
     id 14 
     name lowerneck
     direction -0.0685355 0.990319 0.120714   
     length 1.91222   
     axis 0 0 0   XYZ
    dof rx ry rz
    limits (-20.0 45.0)
           (-30.0 30.0)
           (-30.0 30.0)
  end
  begin
     id 15 
     name upperneck
     direction 0.0886204 0.955665 -0.280805   
     length 1.92526   
     axis 0 0 0   XYZ
    dof rx ry rz
    limits (-20.0 45.0)
           (-30.0 30.0)
           (-30.0 30.0)
  end
  begin
     id 16
     name head
     direction 0.0233423 0.993502 -0.111393  
     length 1.96056  
     axis 0 0 0   XYZ
    dof rx ry rz
    limits (-20.0 45.0)
           (-30.0 30.0)
           (-30.0 30.0)
  end
  begin
     id 17 
     name lclavicle
     direction 0.941873 0.32922 0.0670041  
     length 3.31705  
     axis 0 0 0   XYZ
    dof ry rz
    limits (-20.0 10.0)
           (0.0 20.0)
  end
  begin
     id 18 
     name lhumerus
     direction 1 -4.4898e-011 3.38707e-028   
     length 5.29277   
     axis 180 -30 -90   XYZ
    dof rx ry rz
    limits (-60.0 90.0)
           (-90.0 90.0)
           (-90.0 90.0)
  end
  begin
     id 19
     name lradius
     direction 1 -4.48952e-011 1.63213e-028   
     length 2.85226   
     axis 180 -30 -90   XYZ
    dof rx
    limits (-10.0 170.0)
  end
  begin
     id 20
     name lwrist
     direction 1 -4.49001e-011 1.27856e-027   
     length 1.42613   
     axis -1.61767e-015 90 90   XYZ
    dof ry
    limits (-180.0 0.0)
 end
  begin
     id 21 
     name lhand
     direction 1 -4.48976e-011 2.55931e-027   
     length 0.602097   
     axis -1.63363e-015 90 90   XYZ
    dof rx rz
    limits (-90.0 90.0)
           (-45.0 45.0)
  end
  begin
     id 22 
     name lfingers
     direction 1 -4.48986e-011 5.11684e-027   
     length 0.485426   
     axis -3.26723e-015 90 90   XYZ
    dof rx
    limits (0.0 90.0)
  end
  begin
     id 23
     name lthumb
     direction 0.707107 -6.34915e-011 0.707107   
     length 0.696978   
     axis -90 45 -2.25915e-014   XYZ
    dof rx rz
    limits (-45.0 45.0)
           (-45.0 45.0)
  end
  begin
     id 24 
     name rclavicle
     direction -0.939974 0.327078 0.0973096   
     length 3.10337  
     axis 0 0 0   XYZ 
    dof ry rz
    limits (-10.0 20.0)
           (-20.0 0.0)
  end
  begin
     id 25 
     name rhumerus
     direction -1 -4.48975e-011 1.83745e-027  
     length 5.13304   
     axis 180 30 90   XYZ
    dof rx ry rz
    limits (-90.0 60.0)
           (-90.0 90.0)
           (-90.0 90.0)
  end
  begin
     id 26 
     name rradius
     direction -1 -4.48977e-011 7.1775e-029   
     length 2.74305   
     axis 180 30 90   XYZ
    dof rx
    limits (-10.0 170.0)
  end
  begin
     id 27 
     name rwrist
     direction -1 -4.48977e-011 1.27963e-027   
     length 1.37152   
     axis -1.61767e-015 -90 -90   XYZ
    dof ry
    limits (-180.0 0.0)
  end
  begin
     id 28
     name rhand
     direction -1 -4.4888e-011 2.56782e-027   
     length 0.767976   
     axis -1.63363e-015 -90 -90   XYZ
    dof rx rz
    limits (-90.0 90.0)
           (-45.0 45.0)
  end
  begin
     id 29
     name rfingers
     direction -1 -4.48947e-011 5.12384e-027   
     length 0.619162   
     axis -3.26723e-015 -90 -90   XYZ
    dof rx
    limits (0.0 90.0)
  end
  begin
     id 30
     name rthumb
     direction -0.707107 -6.34857e-011 0.707107   
     length 0.888997   
     axis -90 -45 2.25915e-014   XYZ
    dof rx rz
    limits (-45.0 45.0)
           (-45.0 45.0)
  end
:hierarchy
  begin
    root lhipjoint rhipjoint lowerback
    lhipjoint lfemur
    lfemur ltibia
    ltibia lfoot
    lfoot ltoes
    rhipjoint rfemur
    rfemur rtibia
    rtibia rfoot
    rfoot rtoes
    lowerback upperback
    upperback thorax
    thorax lowerneck lclavicle rclavicle
    lowerneck upperneck
    upperneck head
    lclavicle lhumerus
    lhumerus lradius
    lradius lwrist
    lwrist lhand lthumb
    lhand lfingers
    rclavicle rhumerus
    rhumerus rradius
    rradius rwrist
    rwrist rhand rthumb
    rhand rfingers
  end

#!OML:ASF F:\VICON\USERDATA\INSTALL\rory3\rory3.ASF
:FULLY-SPECIFIED
:DEGREES
1645
root 0.039608 17.2167 0.795266 -6.49758 5.2452 -1.25779
lowerback -8.30917 -0.829062 -1.63988
upperback -5.73787 -0.984656 -0.582273
thorax -1.26162 -0.452497 0.250405
lowerneck 0.137093 -10.5212 -22.2489
upperneck 18.7344 -17.0468 18.4129
head 9.3887 -8.60543 8.35424
rclavicle 1.23246e-014 1.98785e-015
rhumerus 51.9044 -9.72405 -50.1987
rradius 88.7059
rwrist -24.3134
rhand 17.582 15.9098
rfingers 7.12502
rthumb 42.2762 -8.58699
lclavicle 1.23246e-014 1.98785e-015
lhumerus 54.9108 -3.57151 70.7996
lradius 76.0262
lwrist 33.8353
lhand 23.8265 19.872
lfingers 7.12502
lthumb 48.0816 42.0466
rfemur 17.4665 8.7444 22.6395
rtibia 9.54166e-015
rfoot -9.40446 -14.3433
rtoes -9.63724
lfemur 5.66571 -17.3673 -19.2365
ltibia 18.0993
lfoot -17.0878 7.19796
ltoes -17.6667
1646
root 0.0384305 17.2156 0.793972 -6.5697 5.25048 -1.33309
lowerback -8.31436 -0.884768 -1.59799
upperback -5.73237 -1.06065 -0.478947
thorax -1.25048 -0.489949 0.327857
lowerneck -0.0642179 -10.4637 -22.2228
upperneck 19.1095 -16.8715 17.9575
head 9.46848 -8.53808 8.20369
rclavicle 3.77691e-015 1.15295e-014
rhumerus 52.083 -9.38917 -50.4091
rradius 88.2997
rwrist -24.0495
rhand 17.5867 16.0198
rfingers 7.12502
rthumb 42.2806 -8.47553
lclavicle 3.77691e-015 1.15295e-014
lhumerus 54.6205 -3.38341 71.1041
lradius 75.6209
lwrist 32.6213
lhand 23.5339 20.2797
lfingers 7.12502
lthumb 47.8118 42.5799
rfemur 17.4097 8.72252 22.7349
rtibia 0.227768
rfoot -9.50226 -14.344
rtoes -10.2311
lfemur 5.76184 -17.4003 -19.1727
ltibia 18.0631
lfoot -17.1108 7.12755
ltoes -17.3522
1647
root 0.035277 17.2148 0.791503 -6.61949 5.24486 -1.30233
lowerback -8.31372 -0.922107 -1.70388
upperback -5.71572 -1.10307 -0.397555
thorax -1.22952 -0.507109 0.467868
lowerneck -0.282702 -10.4278 -22.2014
upperneck 19.5073 -16.7353 17.5468
head 9.5753 -8.48728 8.06446
rclavicle 6.95746e-016 1.39149e-014
rhumerus 52.2714 -9.11222 -50.6292
rradius 87.7951
rwrist -23.4225
rhand 17.5222 16.0406
rfingers 7.12502
rthumb 42.2202 -8.47521
lclavicle 6.95746e-016 1.39149e-014
lhumerus 54.304 -3.25993 71.3158
lradius 75.5026
lwrist 31.7546
lhand 23.1645 20.6965
lfingers 7.12502
lthumb 47.4708 43.1525
rfemur 16.5651 8.72204 22.7635
rtibia 1.94019
rfoot -10.3421 -14.4787
rtoes -10.2043
lfemur 5.837 -17.3971 -19.2077
ltibia 18.0088
lfoot -17.0428 7.15789
ltoes -17.7498
1648
root 0.0343373 17.2138 0.78964 -6.68477 5.24821 -1.16915
lowerback -8.2947 -0.959288 -1.87146
upperback -5.67058 -1.1416 -0.367965
thorax -1.18892 -0.521948 0.58938
lowerneck -0.423134 -10.3798 -22.2191
upperneck 19.8196 -16.6167 17.2867
head 9.66102 -8.44339 7.98874
rclavicle -1.22253e-014 -1.39149e-014
rhumerus 52.4747 -8.84079 -50.9399
rradius 87.2246
rwrist -22.4873
rhand 17.3296 15.9461
rfingers 7.12502
rthumb 42.0397 -8.63062
lclavicle -1.22253e-014 -1.39149e-014
lhumerus 54.052 -3.17423 71.3857
lradius 75.5255
lwrist 31.1322
lhand 22.7474 20.8059
lfingers 7.12502
lthumb 47.0854 43.4344
rfemur 16.2603 8.72903 22.6465
rtibia 2.68157
rfoot -10.6545 -14.5471
rtoes -10.3505
lfemur 5.92371 -17.4218 -19.3875
ltibia 17.9913
lfoot -17.0338 7.13471
ltoes -17.2789
1649
root 0.0347235 17.2112 0.789078 -6.78474 5.24038 -1.02742
lowerback -8.2486 -1.00785 -2.01245
upperback -5.61369 -1.19753 -0.351469
thorax -1.15103 -0.546627 0.681569
lowerneck -0.575953 -10.3213 -22.1785
upperneck 20.1132 -16.4779 17.0171
head 9.73194 -8.38641 7.9022
rclavicle 7.35503e-015 7.55382e-015
rhumerus 52.7009 -8.53692 -51.2628
rradius 86.6201
rwrist -21.3431
rhand 17.1011 15.8481
rfingers 7.12502
rthumb 41.8256 -8.80014
lclavicle 7.35503e-015 7.55382e-015
lhumerus 53.7261 -3.08156 71.4448
lradius 75.8227
lwrist 30.7373
lhand 22.4521 20.8117
lfingers 7.12502
lthumb 46.8122 43.5602
rfemur 15.992 8.74803 22.5219
rtibia 3.43906
rfoot -10.9681 -14.5972
rtoes -10.5268
lfemur 6.07015 -17.4149 -19.5922
ltibia 17.9698
lfoot -17.0521 7.10254
ltoes -16.5437
1650
root 0.035141 17.2086 0.786958 -6.87032 5.23021 -1.02527
lowerback -8.2075 -1.04344 -1.93778
upperback -5.55603 -1.24985 -0.365199
thorax -1.11392 -0.575728 0.621978
lowerneck -0.796341 -10.2784 -22.0596
upperneck 20.4422 -16.3721 16.8034
head 9.83408 -8.33284 7.81704
rclavicle 6.65929e-015 1.07344e-014
rhumerus 52.8395 -8.31901 -51.5399
rradius 86.1257
rwrist -20.3449
rhand 16.8413 15.5885
rfingers 7.12502
rthumb 41.5819 -9.14012
lclavicle 6.65929e-015 1.07344e-014
lhumerus 53.394 -3.05497 71.3817
lradius 76.3722
lwrist 30.6763
lhand 22.4642 20.7612
lfingers 7.12502
lthumb 46.8233 43.5049
rfemur 15.7655 8.75212 22.5405
rtibia 4.02811
rfoot -11.1758 -14.6388
rtoes -10.55
lfemur 6.14957 -17.3383 -19.6077
ltibia 17.9798
lfoot -16.9556 7.15418
ltoes -17.599
1651
root 0.0361438 17.2068 0.784009 -6.92283 5.17246 -0.975709
lowerback -8.17864 -1.05876 -1.87908
upperback -5.48075 -1.27388 -0.418993
thorax -1.05325 -0.591211 0.531726
lowerneck -0.881303 -10.2569 -21.9629
upperneck 20.4921 -16.3374 16.8044
head 9.85023 -8.30522 7.80517
rclavicle 8.94531e-015 -4.37326e-015
rhumerus 52.9647 -8.16554 -51.9119
rradius 85.7021
rwrist -19.4745
rhand 16.6199 15.4586
rfingers 7.12502
rthumb 41.3742 -9.33764
lclavicle 8.94531e-015 -4.37326e-015
lhumerus 53.1748 -3.04371 71.2596
lradius 77.0572
lwrist 30.8369
lhand 22.6437 20.633
lfingers 7.12502
lthumb 46.9894 43.3039
rfemur 15.6409 8.81203 22.5001
rtibia 4.35163
rfoot -11.2388 -14.6984
rtoes -11.1588
lfemur 6.17413 -17.2604 -19.6721
ltibia 18.0446
lfoot -16.9128 7.19106
ltoes -18.1495
1652
root 0.0366668 17.2065 0.779943 -6.9098 5.13764 -0.979505
lowerback -8.20395 -1.06847 -1.79618
upperback -5.39919 -1.29049 -0.460586
thorax -0.956764 -0.603554 0.439952
lowerneck -1.00896 -10.2603 -21.8653
upperneck 20.4869 -16.3461 16.903
head 9.87388 -8.28829 7.81976
rclavicle 1.69961e-014 0
rhumerus 53.0506 -8.10323 -52.2928
rradius 85.4379
rwrist -18.6138
rhand 16.5899 15.3092
rfingers 7.12502
rthumb 41.3461 -9.49615
lclavicle 1.69961e-014 0
lhumerus 53.0686 -3.07842 71.1016
lradius 77.8318
lwrist 31.2771
lhand 22.8771 20.2237
lfingers 7.12502
lthumb 47.2053 42.7989
rfemur 15.5433 8.84479 22.5006
rtibia 4.47461
rfoot -11.2125 -14.7481
rtoes -11.2883
lfemur 6.09277 -17.1986 -19.6526
ltibia 18.1452
lfoot -16.8146 7.30152
ltoes -19.2696
1653
root 0.0352723 17.2083 0.773428 -6.88408 5.10765 -1.09039
lowerback -8.18826 -1.06763 -1.63056
upperback -5.32715 -1.29962 -0.48656
thorax -0.894212 -0.613467 0.319306
lowerneck -1.20022 -10.2925 -21.6847
upperneck 20.5329 -16.3915 16.9717
head 9.92539 -8.28087 7.80148
rclavicle -1.13307e-014 1.03368e-014
rhumerus 53.083 -8.12444 -52.5662
rradius 85.3419
rwrist -18.0069
rhand 16.6744 15.0859
rfingers 7.12502
rthumb 41.4254 -9.69377
lclavicle -1.13307e-014 1.03368e-014
lhumerus 53.0008 -3.12964 70.9504
lradius 78.6839
lwrist 31.8024
lhand 23.2996 20.0489
lfingers 7.12502
lthumb 47.5956 42.4482
rfemur 15.4171 8.85704 22.6243
rtibia 4.58041
rfoot -11.1699 -14.7421
rtoes -11.199
lfemur 5.966 -17.1029 -19.4727
ltibia 18.2385
lfoot -16.812 7.1841
ltoes -19.0802
1654
root 0.033438 17.2085 0.767866 -6.89712 5.07865 -1.15055
lowerback -8.11592 -1.05771 -1.54458
upperback -5.27092 -1.29309 -0.529077
thorax -0.87839 -0.613365 0.228616
lowerneck -1.16404 -10.293 -21.5585
upperneck 20.4112 -16.4484 17.1994
head 9.89677 -8.28424 7.85873
rclavicle -7.35503e-015 7.95139e-016
rhumerus 52.9613 -8.13272 -52.7654
rradius 85.4572
rwrist -17.6868
rhand 16.7476 14.9017
rfingers 7.12502
rthumb 41.494 -9.85557
lclavicle -7.35503e-015 7.95139e-016
lhumerus 52.8929 -3.23048 70.9542
lradius 79.641
lwrist 32.1918
lhand 23.7912 20.0041
lfingers 7.12502
lthumb 48.0491 42.194
rfemur 15.3853 8.87287 22.7003
rtibia 4.60384
rfoot -11.1639 -14.6972
rtoes -11.0529
lfemur 5.89497 -17.0449 -19.3725
ltibia 18.3397
lfoot -16.8816 7.02827
ltoes -18.2748
1655
root 0.0337698 17.2069 0.763324 -6.95402 5.03501 -1.14609
lowerback -8.00673 -1.02986 -1.48774
upperback -5.1924 -1.26144 -0.606955
thorax -0.860306 -0.600632 0.120113
lowerneck -0.965298 -10.2998 -21.5552
upperneck 20.1417 -16.5638 17.6236
head 9.82965 -8.32046 8.00623
rclavicle 6.85807e-015 1.27222e-014
rhumerus 52.7567 -8.16982 -52.9432
rradius 85.7286
rwrist -17.6566
rhand 16.7178 14.8763
rfingers 7.12502
rthumb 41.466 -9.89014
lclavicle 6.85807e-015 1.27222e-014
lhumerus 52.8297 -3.37505 71.0046
lradius 80.6005
lwrist 32.4105
lhand 24.2481 19.9573
lfingers 7.12502
lthumb 48.4699 41.9478
rfemur 15.3746 8.91186 22.7054
rtibia 4.70642
rfoot -11.2739 -14.7065
rtoes -10.768
lfemur 5.92477 -17.0024 -19.3901
ltibia 18.3995
lfoot -16.9049 7.09018
ltoes -18.7116
1656
root 0.0348931 17.2075 0.759203 -6.93591 4.99753 -1.18237
lowerback -7.96873 -0.973239 -1.3734
upperback -5.10651 -1.19352 -0.668469
thorax -0.796433 -0.571015 -0.00255153
lowerneck -0.809523 -10.3553 -21.6396
upperneck 19.8669 -16.7393 18.0773
head 9.79622 -8.38762 8.16661
rclavicle 1.68967e-014 9.93923e-015
rhumerus 52.607 -8.32244 -53.099
rradius 86.0367
rwrist -17.7668
rhand 16.84 14.9824
rfingers 7.12502
rthumb 41.5807 -9.74654
lclavicle 1.68967e-014 9.93923e-015
lhumerus 52.8459 -3.58483 71.118
lradius 81.4333
lwrist 32.5791
lhand 24.4722 19.8979
lfingers 7.12502
lthumb 48.6761 41.789
rfemur 15.2127 8.94378 22.7393
rtibia 4.92914
rfoot -11.3176 -14.7285
rtoes -11.0442
lfemur 5.88192 -16.967 -19.3384
ltibia 18.4135
lfoot -16.8795 7.11542
ltoes -19.0957
